<?xml version="1.0" encoding="utf-8"?>
<!-- Generator: Adobe Illustrator 27.1.1, SVG Export Plug-In . SVG Version: 6.00 Build 0)  -->
<svg version="1.1" id="Layer_1" xmlns="http://www.w3.org/2000/svg" xmlns:xlink="http://www.w3.org/1999/xlink" x="0px" y="0px"
	 viewBox="0 0 500 500" style="enable-background:new 0 0 500 500;" xml:space="preserve">
<style type="text/css">
	.st0{opacity:0.1;}
</style>
<path class="st0" d="M236.16,492.81c-2.03,2.37-5.1,2.83-8.22,2c-4.06-1.08-8.25-2.09-11.97-4.06c-5.73-3.03-9.1-8.36-9.91-15.3
	c-0.42-3.59,0.56-6.88,2.9-9.46c5.87-6.48,9.76-14.26,13.35-22.32c1.81-4.07,4.05-7.94,6.32-11.74c2.22-3.71,2.05-3.77-1.4-6.33
	c-5.87-4.33-11.6-8.91-17.12-13.74c-2.29-2-3.99-4.82-5.77-7.42c-2.61-3.81-5.98-5.19-10.17-3.94c-2.05,0.61-4.16,1.33-5.99,2.48
	c-24.79,15.59-50.22,15.71-76.29,4.09c-13.46-6-25.11-14.88-35.97-25.15c-7.7-7.28-16-13.41-26.03-16.42
	c-6.84-2.05-13.73-2.07-20.71-1.26c-7.67,0.88-15.32,0.64-22.7-2.05c-2.33-0.85-4.43-2.46-6.48-4.29c8.3,3.16,15.81,0.27,23.36-2.59
	c2.26-0.85,4.65-1.35,7.01-1.83c15.76-3.18,30.44,0.49,44.26,8.61c7.24,4.25,14.31,8.87,21.24,13.69
	c19.01,13.21,38.88,14.09,59.71,5.81c14.56-5.8,26.32-15.81,37.2-27.35c13.42-14.24,26.62-28.75,40.45-42.51
	c13.61-13.53,28.32-25.66,44.86-34.89c16.7-9.31,34.43-14.21,53.31-14.1c12.12,0.07,24.28,0.38,36.25-2.24
	c19.09-4.17,36.23-12.45,49.15-28.75c12.26-15.47,19.4-33.1,16.8-53.91c-1.31-10.54-3.58-20.94-5.39-31.4
	c-1.81-10.47-4.01-20.88-5.3-31.42c-1.68-13.77,0.1-27.39,3.42-40.74c3.68-14.8,8.39-29.2,15.14-42.74
	c9.25-18.58,23.8-28.73,43.12-31.15c4.12-0.52,6.52,1.66,6.04,5.97c-0.56,5.04,0.73,8.36,6.27,8.25c1.05-0.02,2.81,1.57,3.02,2.68
	c0.3,1.57-0.38,3.46-0.98,5.06c-0.26,0.68-1.35,1.09-2.13,1.44c-1.73,0.75-2.27,1.94-1.84,3.95c0.76,3.54-0.5,5.2-3.89,4.66
	c-3.73-0.59-7.36-1.82-11.06-2.6c-9.51-2.01-15.13,1.44-18.54,11.24c-0.18,0.52-0.36,1.04-0.51,1.57
	c-5.96,21.52-7.49,43.45-5.44,65.76c1.75,19.07,7.03,37.17,12.43,55.26c4.27,14.33,6.69,28.93,5.66,44.06
	c-1.34,19.8-7.97,37.46-18.73,53.37c-11.7,17.29-25.74,31.82-43.51,41.84c-5.16,2.91-6.83,6.27-5.43,12.07
	c5.3,22.01,4.66,44.26,2.74,66.59c-0.98,11.36-0.46,22.56,2.54,33.6c2.2,8.11,2.03,16.32-0.34,24.39
	c-1.16,3.94-1.32,7.71-0.03,11.69c1.78,5.5,1.64,11.22,0.17,16.73c-1.91,7.14-0.45,12.94,4.29,18.33c5.03,5.71,4.09,8.86-2.88,11.17
	c-7.3,2.42-14.73,3.74-22.38,2.15c-6.51-1.35-7.27-3.11-4.69-9.68c1.67-4.26,3.23-8.59,4.44-13.02c2.66-9.75,1.72-19.29-2.25-28.45
	c-1.49-3.44-3.15-6.81-5.01-10.03c-5.5-9.53-7.15-19.65-4.92-30.65c0.74-3.66,0.81-7.53,0.77-11.31c-0.02-1.96-0.74-4-1.5-5.83
	c-1.45-3.52-3.39-3.79-5.91-0.99c-1.43,1.6-2.72,3.35-4.13,4.97c-6.13,6.98-13.48,11.7-22.2,13.87c-3.48,0.87-4.28,1.67-4.65,5.59
	c-1.59,16.83-5.94,32.69-14.17,47.19c-1.06,1.87-2.38,3.65-3.86,5.15c-5.67,5.72-9.35,12.46-10.19,20.93
	c-0.52,5.23-5.53,8.37-10.78,6.52c-2.53-0.89-4.97-2.59-7-4.48c-4.93-4.61-7.45-10.8-8.72-17.58c-0.66-3.52,1.55-6.82,5.27-8.13
	c1.96-0.69,4.02-1.01,5.97-1.72c5.98-2.15,8.7-6.09,8.57-12.88c-0.07-3.78-0.74-7.54-1.03-11.32c-0.31-4.05-0.61-8.1-0.71-12.16
	c-0.06-2.29-0.88-3.3-2.96-3.05c-6.07,0.74-12.16,1.29-18.17,2.38c-1.92,0.35-4,1.78-5.33,3.38c-3.7,4.44-7.23,8.84-12.7,11.01
	c-1.36,0.54-2.76,3.1-2.87,4.82c-0.42,7.09-0.46,14.22-0.39,21.33c0.03,3.04,0.71,6.06,1.02,9.1c0.31,3.1,1.77,5.36,4.17,6.98
	c2.18,1.48,4.44,2.84,6.56,4.42c3.03,2.25,3.89,4.59,3.07,7.79c-0.87,3.44-2.98,5.48-6.63,5.41c-8.08-0.15-16.19-0.23-24.2-1.21
	C241.99,497.58,239.32,494.75,236.16,492.81z M238.73,460.91c-7.91,8.31-8.33,17.91-1.22,25.95
	C241.69,478.45,240.99,469.92,238.73,460.91z"/>
</svg>
