<?xml version="1.0" encoding="utf-8"?>
<!-- Generator: Adobe Illustrator 27.1.1, SVG Export Plug-In . SVG Version: 6.00 Build 0)  -->
<svg version="1.1" id="Layer_1" xmlns="http://www.w3.org/2000/svg" xmlns:xlink="http://www.w3.org/1999/xlink" x="0px" y="0px"
	 viewBox="0 0 500 500" style="enable-background:new 0 0 500 500;" xml:space="preserve">
<style type="text/css">
	.st0{opacity:0.1;enable-background:new    ;}
</style>
<path class="st0" d="M238.2,456.9c-1.7,2-4.3,2.4-7,1.7c-3.5-0.9-7-1.8-10.2-3.5c-4.9-2.6-7.8-7.1-8.4-13c-0.4-3.1,0.5-5.9,2.5-8.1
	c5-5.5,8.3-12.1,11.4-19c1.5-3.5,3.5-6.8,5.4-10c1.9-3.2,1.7-3.2-1.2-5.4c-5-3.7-9.9-7.6-14.6-11.7c-2-1.7-3.4-4.1-4.9-6.3
	c-2.2-3.2-5.1-4.4-8.7-3.4c-1.7,0.5-3.5,1.1-5.1,2.1c-21.1,13.3-42.8,13.4-65,3.5c-11.5-5.1-21.4-12.7-30.6-21.4
	c-6.6-6.2-13.6-11.4-22.2-14c-5.8-1.7-11.7-1.8-17.6-1.1c-6.5,0.7-13.1,0.5-19.3-1.7c-2-0.7-3.8-2.1-5.5-3.7
	c7.1,2.7,13.5,0.2,19.9-2.2c1.9-0.7,4-1.2,6-1.6c13.4-2.7,25.9,0.4,37.7,7.3c6.2,3.6,12.2,7.6,18.1,11.7c16.2,11.3,33.1,12,50.9,5
	c12.4-4.9,22.4-13.5,31.7-23.3c11.4-12.1,22.7-24.5,34.5-36.2c11.6-11.5,24.1-21.9,38.2-29.7c14.2-7.9,29.3-12.1,45.4-12
	c10.3,0.1,20.7,0.3,30.9-1.9c16.3-3.6,30.9-10.6,41.9-24.5c10.4-13.2,16.5-28.2,14.3-45.9c-1.1-9-3.1-17.8-4.6-26.8
	c-1.5-8.9-3.4-17.8-4.5-26.8c-1.4-11.7,0.1-23.3,2.9-34.7c3.1-12.6,7.1-24.9,12.9-36.4c7.9-15.8,20.3-24.5,36.7-26.5
	c3.5-0.4,5.6,1.4,5.1,5.1c-0.5,4.3,0.6,7.1,5.3,7c0.9,0,2.4,1.3,2.6,2.3c0.3,1.3-0.3,2.9-0.8,4.3c-0.2,0.6-1.2,0.9-1.8,1.2
	c-1.5,0.6-1.9,1.7-1.6,3.4c0.6,3-0.4,4.4-3.3,4c-3.2-0.5-6.3-1.6-9.4-2.2c-8.1-1.7-12.9,1.2-15.8,9.6c-0.2,0.4-0.3,0.9-0.4,1.3
	c-5.1,18.3-6.4,37-4.6,56c1.5,16.2,6,31.7,10.6,47.1c3.6,12.2,5.7,24.6,4.8,37.5c-1.1,16.9-6.8,31.9-16,45.5
	c-10,14.7-21.9,27.1-37.1,35.6c-4.4,2.5-5.8,5.3-4.6,10.3c4.5,18.8,4,37.7,2.3,56.7c-0.8,9.7-0.4,19.2,2.2,28.6
	c1.9,6.9,1.7,13.9-0.3,20.8c-1,3.4-1.1,6.6,0,10c1.5,4.7,1.4,9.6,0.1,14.3c-1.6,6.1-0.4,11,3.7,15.6c4.3,4.9,3.5,7.5-2.5,9.5
	c-6.2,2.1-12.6,3.2-19.1,1.8c-5.5-1.2-6.2-2.6-4-8.2c1.4-3.6,2.8-7.3,3.8-11.1c2.3-8.3,1.5-16.4-1.9-24.2c-1.3-2.9-2.7-5.8-4.3-8.5
	c-4.7-8.1-6.1-16.7-4.2-26.1c0.6-3.1,0.7-6.4,0.7-9.6c0-1.7-0.6-3.4-1.3-5c-1.2-3-2.9-3.2-5-0.8c-1.2,1.4-2.3,2.9-3.5,4.2
	c-5.2,5.9-11.5,10-18.9,11.8c-3,0.7-3.6,1.4-4,4.8c-1.4,14.3-5.1,27.9-12.1,40.2c-0.9,1.6-2,3.1-3.3,4.4c-4.8,4.9-8,10.6-8.7,17.8
	c-0.4,4.5-4.7,7.1-9.2,5.6c-2.2-0.8-4.2-2.2-6-3.8c-4.2-3.9-6.3-9.2-7.4-15c-0.6-3,1.3-5.8,4.5-6.9c1.7-0.6,3.4-0.9,5.1-1.5
	c5.1-1.8,7.4-5.2,7.3-11c-0.1-3.2-0.6-6.4-0.9-9.6c-0.3-3.5-0.5-6.9-0.6-10.4c-0.1-2-0.7-2.8-2.5-2.6c-5.2,0.6-10.4,1.1-15.5,2
	c-1.6,0.3-3.4,1.5-4.5,2.9c-3.2,3.8-6.2,7.5-10.8,9.4c-1.2,0.5-2.4,2.6-2.4,4.1c-0.4,6-0.4,12.1-0.3,18.2c0,2.6,0.6,5.2,0.9,7.8
	c0.3,2.6,1.5,4.6,3.6,5.9c1.9,1.3,3.8,2.4,5.6,3.8c2.6,1.9,3.3,3.9,2.6,6.6c-0.7,2.9-2.5,4.7-5.6,4.6c-6.9-0.1-13.8-0.2-20.6-1
	C243.2,461,240.9,458.6,238.2,456.9z M240.4,429.7c-6.7,7.1-7.1,15.3-1,22.1C242.9,444.7,242.3,437.4,240.4,429.7z"/>
</svg>
